# xmcd CD database file
# Copyright (C) 1993-1998 Ti Kan
# 
# Track frame offsets:
#     150
#     15402
#     33967
#     46757
#     61337
#     75827
#     89904
#     106092
#     118640
#     133532
#     146930
#     159367
#     174300
#     187070
# 
# Disc length: 2665 seconds
# 
# Revision: 1
# Processed by: cddbd v1.4b41PL1 Copyright (c) Steve Scherf et al.
# Submitted via: DiscPlay 4.0.4
# 
DISCID=ad0a670e
DTITLE=Santanna - Nordestinamente Cantador
DYEAR=1900
DGENRE=
TTITLE0=Coco quebrado
TTITLE1=Feito mel no mel o
TTITLE2=Uma loa para aboiar
TTITLE3=Doidim por voc 
TTITLE4=J  n o conserto mais
TTITLE5=Seguro desemprego
TTITLE6=O pulo do ca ote
TTITLE7=Jeito cativo
TTITLE8=Ciganada
TTITLE9=Sou nordestino
TTITLE10=E o que   saudade?
TTITLE11=Sabi  na seca
TTITLE12=Casa Amarela
TTITLE13=Confiss o de um nordestino
EXTD=
EXTT0=
EXTT1=
EXTT2=
EXTT3=
EXTT4=
EXTT5=
EXTT6=
EXTT7=
EXTT8=
EXTT9=
EXTT10=
EXTT11=
EXTT12=
EXTT13=
PLAYORDER=
